HIERARCHY
ROOT Hips
{
	OFFSET	0.000000	0.000000	0.000000
	CHANNELS 6 Xposition Yposition Zposition Zrotation Xrotation Yrotation
	JOINT LeftHip
	{
		OFFSET	4.740440	-3.195970	-0.322709
		CHANNELS 3 Zrotation Xrotation Yrotation
		JOINT LeftKnee
		{
			OFFSET	-1.605680	-15.592300	1.005510
			CHANNELS 3 Zrotation Xrotation Yrotation
			JOINT LeftAnkle
			{
				OFFSET	-0.632401	-16.421000	-1.413730
				CHANNELS 3 Zrotation Xrotation Yrotation
				End Site
				{
					OFFSET	0.008423	-2.933000	-1.776750
				}
			}
		}
	}
	JOINT RightHip
	{
		OFFSET	-4.740440	-3.195970	-0.322709
		CHANNELS 3 Zrotation Xrotation Yrotation
		JOINT RightKnee
		{
			OFFSET	1.605680	-15.592300	1.005510
			CHANNELS 3 Zrotation Xrotation Yrotation
			JOINT RightAnkle
			{
				OFFSET	0.632401	-16.421000	-1.413730
				CHANNELS 3 Zrotation Xrotation Yrotation
				End Site
				{
					OFFSET	-0.008423	-2.933000	-1.776750
				}
			}
		}
	}
	JOINT Chest
	{
		OFFSET	0.000000	3.468200	0.078401
		CHANNELS 3 Zrotation Xrotation Yrotation
		JOINT LeftCollar
		{
			OFFSET	3.857650	15.070700	-0.011583
			CHANNELS 3 Zrotation Xrotation Yrotation
			JOINT LeftShoulder
			{
				OFFSET	3.979720	-1.940530	-0.165223
				CHANNELS 3 Zrotation Xrotation Yrotation
				JOINT LeftElbow
				{
					OFFSET	0.615844	-10.986600	-0.673886
					CHANNELS 3 Zrotation Xrotation Yrotation
					JOINT LeftWrist
					{
						OFFSET	0.826843	-10.854500	1.034220
						CHANNELS 3 Zrotation Xrotation Yrotation
						End Site
						{
							OFFSET	-1.679080	-8.456540	0.936217
						}
					}
				}
			}
		}
		JOINT RightCollar
		{
			OFFSET	-3.857650	15.070700	-0.011583
			CHANNELS 3 Zrotation Xrotation Yrotation
			JOINT RightShoulder
			{
				OFFSET	-3.979720	-1.940530	-0.165223
				CHANNELS 3 Zrotation Xrotation Yrotation
				JOINT RightElbow
				{
					OFFSET	-0.615845	-10.986600	-0.673886
					CHANNELS 3 Zrotation Xrotation Yrotation
					JOINT RightWrist
					{
						OFFSET	-0.826843	-10.854500	1.034220
						CHANNELS 3 Zrotation Xrotation Yrotation
						End Site
						{
							OFFSET	1.679080	-8.456540	0.936217
						}
					}
				}
			}
		}
		JOINT Neck
		{
			OFFSET	0.000000	15.101400	0.055730
			CHANNELS 3 Zrotation Xrotation Yrotation
			JOINT Head
			{
				OFFSET	0.000000	4.185120	1.488260
				CHANNELS 3 Zrotation Xrotation Yrotation
				End Site
				{
					OFFSET	0.000000	7.773420	-0.106016
				}
			}
		}
	}
}
MOTION
Frames:     12
Frame Time: 0.016667
-3.294894	39.395393	9.028648	12.635303	23.675476	28.530182	14.959229	13.975461	-11.564046	11.157614	99.708992	-13.049098	4.050448	-9.925072	20.885242	-20.043020	-23.633854	-1.117753	0.505312	7.306726	-13.942047	-3.045102	5.981443	-4.398700	1.634670	10.295506	-13.300832	-8.017977	-6.251134	4.035126	25.766939	-1.842762	12.859826	13.912376	-43.522381	6.073492	9.835270	8.282913	4.879172	-5.265341	-11.911034	10.089375	-24.112785	-4.028589	-13.546484	-1.918996	-15.485794	19.369604	-15.963114	-7.522933	13.291387	-11.445537	-17.565977	11.246284	-1.610152	0.132488	-15.453035	
-3.368121	39.432209	9.235045	11.713646	23.501356	28.491690	12.848776	10.625608	-8.906765	13.692717	101.185844	-16.319759	3.797404	-9.486894	20.491224	-18.780647	-22.938536	0.933646	0.539977	5.480766	-15.788390	-2.200725	6.894931	-3.969973	1.922848	9.593624	-13.249295	-8.487052	-6.489158	2.982404	26.575384	-2.519983	11.623801	7.859495	-39.816750	-1.286355	5.089374	6.859720	-7.371901	-4.983570	-12.307699	11.064368	-23.035248	-5.898718	-12.487986	-1.729933	-16.237221	19.204185	-14.720613	-6.705345	13.575952	-11.930676	-16.980656	11.297520	-1.592358	-1.113143	-17.460321	
-3.444642	39.462894	9.337139	11.407607	23.296259	28.487375	12.434380	9.761280	-7.929379	30.609692	99.775314	-34.266201	5.728424	-6.813551	21.212975	-18.232977	-22.515921	1.280533	0.411967	4.872244	-16.042192	-1.439312	7.364687	-3.305270	1.990141	9.352582	-13.133375	-8.610085	-6.534187	2.698320	26.692099	-3.821191	10.208767	6.915380	-37.467823	-3.176963	1.873953	6.133217	-14.719901	-4.887610	-12.380691	11.279542	-22.544563	-6.412498	-12.119058	-1.679085	-16.413757	19.129082	-14.265617	-6.913449	13.453684	-11.868882	-17.048138	11.109591	-1.663069	-0.773006	-18.072041	
-3.399099	39.467209	9.485884	10.350971	22.184853	28.511389	12.037318	7.880818	-5.041637	31.070982	99.689232	-33.590145	4.132905	-7.699564	19.045465	-16.228527	-20.917603	0.991717	-0.228694	3.250199	-14.620990	-0.825434	8.119024	-2.823015	2.084368	8.698256	-12.390694	-8.749734	-6.601307	1.786055	27.541655	-3.835998	9.333568	1.008357	-34.433159	-12.688596	2.555378	4.999508	-16.258524	-4.512803	-12.312923	11.231171	-20.676519	-7.831767	-10.931046	-1.640161	-16.728533	18.914637	-13.462485	-7.286794	12.756693	-11.895452	-16.541847	9.868958	-1.403523	0.053438	-20.084877	
-3.434811	39.488964	9.552166	10.074887	21.635870	28.547739	12.033721	7.522421	-4.194150	44.388916	98.947952	-46.770054	4.742064	-6.145766	18.594221	-15.621666	-20.196526	0.595876	-0.351088	2.794240	-13.727515	-0.414657	8.522844	-2.165724	2.075609	8.567919	-12.185812	-8.774488	-6.579342	1.532500	27.516356	-4.743199	8.344779	0.126889	-32.465420	-14.600160	0.342909	4.011230	-19.953840	-4.415025	-12.159261	11.066531	-19.934145	-8.322871	-10.484187	-1.707463	-16.745205	18.791847	-12.939119	-8.011855	12.020602	-11.927729	-16.228771	9.506092	-1.273928	0.240771	-20.970619	
-3.405614	39.495445	9.724289	9.486858	20.073378	28.681938	12.031323	6.551970	-2.062936	46.049072	98.372917	-47.512474	2.484960	-6.604198	16.302956	-13.863547	-18.110971	0.217080	-0.787601	1.653666	-11.898762	0.116261	8.985418	-2.428774	2.037376	7.981627	-11.661135	-9.122264	-6.441986	0.851824	27.898680	-4.148381	6.883788	-3.632763	-29.751249	-19.385012	1.636746	3.255961	-19.151758	-4.461169	-11.640183	10.399823	-17.494957	-9.491644	-9.297018	-2.010647	-16.614868	18.503174	-12.730060	-7.020347	12.140830	-12.024735	-15.463309	8.198833	-1.106454	0.837722	-23.956186	
-3.446967	39.493977	9.832311	9.309725	19.610149	28.742109	12.023228	6.223666	-1.395081	60.798077	97.890457	-62.491623	-0.379631	-6.230209	13.254261	-13.251703	-17.484585	0.344029	-0.890726	1.367785	-11.726433	0.261102	9.117365	-2.380691	2.068877	7.741821	-11.558915	-9.277033	-6.354289	0.640587	27.696203	-4.058354	6.367991	-4.283401	-28.875881	-20.055698	0.114423	2.978162	-18.265985	-4.573983	-11.545727	10.156094	-16.604122	-9.768856	-8.815370	-2.150768	-16.540348	18.366177	-12.507509	-6.811487	12.172607	-12.539444	-15.825861	6.758297	-0.633120	1.496964	-24.256784	
-3.528276	39.475491	10.133511	8.829043	18.336149	28.754309	11.959375	5.297097	0.421174	65.212273	97.223305	-66.501442	-2.116819	-4.833470	11.363884	-11.376069	-15.806581	0.581198	-1.534616	0.679920	-11.409222	0.902218	9.395192	-2.118215	2.033250	6.874311	-11.152324	-9.527397	-5.732440	0.187596	26.459028	-3.604097	5.311112	-5.424272	-26.968607	-20.481894	1.279011	2.968072	-16.236557	-4.663453	-11.359161	9.515014	-14.365223	-10.229393	-7.417663	-2.324443	-16.209198	18.190788	-11.637765	-6.119769	12.465811	-12.537124	-14.997492	5.076797	-0.814512	1.713262	-27.858175	
-3.530506	39.430454	10.197540	8.376740	17.268751	28.697939	12.253112	4.954136	1.384510	76.756996	97.039719	-78.283775	-3.828746	-3.408391	9.550481	-10.146749	-14.908512	0.818388	-1.707026	0.569862	-11.265433	1.101312	9.378922	-2.109870	1.676537	5.713037	-10.645042	-8.942170	-4.038362	0.177847	25.886673	-3.390616	5.072499	-5.617351	-26.486752	-20.194223	0.343582	3.174711	-13.515912	-4.075934	-9.853663	9.282160	-13.728054	-10.285241	-6.954977	-2.292018	-16.106081	18.183416	-11.228565	-5.914113	12.624641	-12.287722	-13.973190	3.241318	-0.448707	2.390450	-27.784073	
-3.638446	39.381809	10.522100	8.037129	16.614834	28.602751	11.989120	3.902375	2.592411	84.352776	96.879829	-86.075066	-5.182625	-2.028726	8.012914	-8.824673	-13.948034	0.822775	-2.031316	0.319338	-11.243998	1.440157	9.145007	-1.817940	1.393891	4.815665	-10.208401	-9.162008	-3.881352	-0.075224	24.107004	-2.645054	4.783607	-5.958528	-25.171131	-19.051296	1.581127	3.330318	-12.685761	-4.201205	-10.108207	8.659533	-12.060570	-10.320744	-5.639187	-2.186870	-15.912861	18.353970	-9.697619	-5.495751	13.075027	-12.351441	-13.863416	1.130225	-0.352809	2.646328	-31.229431	
-3.657227	39.362896	10.771704	7.866986	16.259327	28.534679	11.743991	3.206723	3.023571	-84.809517	82.615417	82.564178	-6.234206	-0.793259	6.666201	-8.208963	-12.911389	0.152987	-2.026535	-0.428545	-11.194496	1.261053	9.019098	-1.007352	0.903605	3.702523	-9.872755	-8.907803	-2.877148	-0.068141	23.553005	-2.401570	4.760112	-6.027977	-24.719706	-18.699284	0.997979	3.588128	-10.853605	-3.916591	-9.197323	8.425136	-11.561854	-10.287872	-5.248058	-2.134046	-15.850911	18.462330	-9.176437	-5.428277	13.184197	-12.076978	-13.087992	0.185975	-0.198713	2.975412	-31.978403	
-3.678982	39.299248	10.865366	7.489188	14.946649	28.330210	12.166052	3.333478	3.392812	-76.702545	81.992981	73.972168	-6.722139	-0.051012	5.627962	-7.023590	-11.466155	0.558738	-2.013115	-0.958643	-11.533960	1.722289	8.875319	-0.631712	1.087666	3.320801	-9.403887	-9.311556	-2.838002	-0.034008	22.015018	-1.715446	4.732765	-5.989607	-23.414356	-17.883999	2.013812	3.688174	-11.607271	-4.156451	-9.481263	7.868444	-10.196734	-10.005727	-4.084859	-2.011214	-15.674913	18.787424	-7.915901	-5.286120	13.168795	-12.510880	-13.504902	-2.709505	0.497121	3.978182	-33.969894	
